{
	"accessors" : 
	[
		{
			"bufferView" : 2,
			"byteOffset" : 0,
			"componentType" : 5126,
			"count" : 304,
			"max" : 
			[
				0.6800203323364258,
				0.6800203323364258,
				0.6800203323364258,
				0.2509804
			],
			"min" : 
			[
				0.6800203323364258,
				0.6800203323364258,
				0.6800203323364258,
				0.2509804
			],
			"name" : "accessor_color_m0-PolyGlass24_-181046",
			"type" : "VEC4"
		},
		{
			"bufferView" : 2,
			"byteOffset" : 4864,
			"componentType" : 5126,
			"count" : 9902,
			"max" : 
			[
				1,
				1,
				1,
				1
			],
			"min" : 
			[
				5.692175545846112e-05,
				0.08919350802898407,
				0,
				1
			],
			"name" : "accessor_color_m1-PolyPaper20_-197106",
			"type" : "VEC4"
		},
		{
			"bufferView" : 0,
			"byteOffset" : 0,
			"componentType" : 5123,
			"count" : 456,
			"max" : 
			[
				303
			],
			"min" : 
			[
				0
			],
			"name" : "accessor_indices_0_m0-PolyGlass24_-181046",
			"type" : "SCALAR"
		},
		{
			"bufferView" : 0,
			"byteOffset" : 912,
			"componentType" : 5123,
			"count" : 14334,
			"max" : 
			[
				9901
			],
			"min" : 
			[
				0
			],
			"name" : "accessor_indices_0_m1-PolyPaper20_-197106",
			"type" : "SCALAR"
		},
		{
			"bufferView" : 1,
			"byteOffset" : 3648,
			"componentType" : 5126,
			"count" : 304,
			"max" : 
			[
				0.7979507,
				0.8848128,
				0.9232346
			],
			"min" : 
			[
				-0.7977417,
				-0.8935095,
				-0.9252617
			],
			"name" : "accessor_normal_m0-PolyGlass24_-181046",
			"type" : "VEC3"
		},
		{
			"bufferView" : 1,
			"byteOffset" : 126120,
			"componentType" : 5126,
			"count" : 9902,
			"max" : 
			[
				0.9997092,
				0.9999023,
				0.9997365
			],
			"min" : 
			[
				-0.9991719,
				-0.9999024,
				-0.9986579
			],
			"name" : "accessor_normal_m1-PolyPaper20_-197106",
			"type" : "VEC3"
		},
		{
			"bufferView" : 1,
			"byteOffset" : 0,
			"componentType" : 5126,
			"count" : 304,
			"max" : 
			[
				0.7982823,
				1.141343,
				-0.6043156
			],
			"min" : 
			[
				0.2552541,
				0.221611,
				-1.820669
			],
			"name" : "accessor_position_m0-PolyGlass24_-181046",
			"type" : "VEC3"
		},
		{
			"bufferView" : 1,
			"byteOffset" : 7296,
			"componentType" : 5126,
			"count" : 9902,
			"max" : 
			[
				0.7066394,
				2.091706,
				-0.5290184999999999
			],
			"min" : 
			[
				-0.1666492,
				0.2291133,
				-1.863164
			],
			"name" : "accessor_position_m1-PolyPaper20_-197106",
			"type" : "VEC3"
		}
	],
	"asset" : 
	{
		"copyright" : "Unknown",
		"generator" : "glTF 1-to-2 Upgrader for Google Blocks",
		"version" : "2.0"
	},
	"bufferViews" : 
	[
		{
			"buffer" : 0,
			"byteLength" : 29580,
			"byteOffset" : 0,
			"name" : "ushortBufferView",
			"target" : 34963
		},
		{
			"buffer" : 0,
			"byteLength" : 244944,
			"byteOffset" : 29580,
			"byteStride" : 12,
			"name" : "vec3BufferView",
			"target" : 34962
		},
		{
			"buffer" : 0,
			"byteLength" : 163296,
			"byteOffset" : 274524,
			"byteStride" : 16,
			"name" : "vec4BufferView",
			"target" : 34962
		}
	],
	"buffers" : 
	[
		{
			"byteLength" : 437820,
			"name" : "model",
			"uri" : "model.bin"
		}
	],
	"materials" : 
	[
		{
			"alphaMode" : "OPAQUE",
			"doubleSided" : false,
			"name" : "BlocksPaper",
			"pbrMetallicRoughness" : 
			{
				"baseColorFactor" : 
				[
					1,
					1,
					1,
					1
				],
				"metallicFactor" : 0,
				"roughnessFactor" : 0.6
			}
		},
		{
			"alphaMode" : "BLEND",
			"doubleSided" : false,
			"name" : "BlocksGlass",
			"pbrMetallicRoughness" : 
			{
				"baseColorFactor" : 
				[
					0.2,
					0.2,
					1,
					0.3
				],
				"metallicFactor" : 1,
				"roughnessFactor" : 0.4
			}
		},
		{
			"alphaMode" : "OPAQUE",
			"doubleSided" : true,
			"name" : "BlocksGem",
			"pbrMetallicRoughness" : 
			{
				"baseColorFactor" : 
				[
					1,
					0.4,
					1,
					1
				],
				"metallicFactor" : 0,
				"roughnessFactor" : 0.1
			}
		}
	],
	"meshes" : 
	[
		{
			"name" : "mesh_m0-PolyGlass24_-181046",
			"primitives" : 
			[
				{
					"attributes" : 
					{
						"COLOR_0" : 0,
						"NORMAL" : 4,
						"POSITION" : 6
					},
					"indices" : 2,
					"material" : 1,
					"mode" : 4
				}
			]
		},
		{
			"name" : "mesh_m1-PolyPaper20_-197106",
			"primitives" : 
			[
				{
					"attributes" : 
					{
						"COLOR_0" : 1,
						"NORMAL" : 5,
						"POSITION" : 7
					},
					"indices" : 3,
					"material" : 0,
					"mode" : 4
				}
			]
		}
	],
	"nodes" : 
	[
		{
			"matrix" : 
			[
				1,
				0,
				0,
				0,
				0,
				1,
				0,
				0,
				0,
				0,
				1,
				0,
				0,
				0,
				0,
				1
			],
			"mesh" : 1,
			"name" : "node_MeshObject-90779328-PolyPaper20"
		},
		{
			"matrix" : 
			[
				1,
				0,
				0,
				0,
				0,
				1,
				0,
				0,
				0,
				0,
				1,
				0,
				0,
				0,
				0,
				1
			],
			"mesh" : 0,
			"name" : "node_MeshObject861812736-PolyGlass24"
		}
	],
	"scene" : 0,
	"scenes" : 
	[
		{
			"extras" : {},
			"name" : "defaultScene",
			"nodes" : 
			[
				1,
				0
			]
		}
	]
}