{
	"accessors" : 
	[
		{
			"bufferView" : 2,
			"byteOffset" : 0,
			"componentType" : 5126,
			"count" : 9882,
			"max" : 
			[
				1,
				1,
				1,
				1
			],
			"min" : 
			[
				0,
				0.006584956776350737,
				0.006584956776350737,
				1
			],
			"name" : "accessor_color_m0-PolyPaper18_-185814",
			"type" : "VEC4"
		},
		{
			"bufferView" : 2,
			"byteOffset" : 158112,
			"componentType" : 5126,
			"count" : 5102,
			"max" : 
			[
				1,
				1,
				1,
				1
			],
			"min" : 
			[
				0,
				0.006584956776350737,
				0.006584956776350737,
				1
			],
			"name" : "accessor_color_m1-PolyPaper11_-186534",
			"type" : "VEC4"
		},
		{
			"bufferView" : 0,
			"byteOffset" : 0,
			"componentType" : 5123,
			"count" : 15198,
			"max" : 
			[
				9881
			],
			"min" : 
			[
				0
			],
			"name" : "accessor_indices_0_m0-PolyPaper18_-185814",
			"type" : "SCALAR"
		},
		{
			"bufferView" : 0,
			"byteOffset" : 30396,
			"componentType" : 5123,
			"count" : 7650,
			"max" : 
			[
				5101
			],
			"min" : 
			[
				0
			],
			"name" : "accessor_indices_0_m1-PolyPaper11_-186534",
			"type" : "SCALAR"
		},
		{
			"bufferView" : 1,
			"byteOffset" : 118584,
			"componentType" : 5126,
			"count" : 9882,
			"max" : 
			[
				1,
				1,
				1
			],
			"min" : 
			[
				-1,
				-1,
				-1
			],
			"name" : "accessor_normal_m0-PolyPaper18_-185814",
			"type" : "VEC3"
		},
		{
			"bufferView" : 1,
			"byteOffset" : 298392,
			"componentType" : 5126,
			"count" : 5102,
			"max" : 
			[
				0.9998407,
				0.9996058,
				0.9981533
			],
			"min" : 
			[
				-0.9926757,
				-0.9996058,
				-0.9959955
			],
			"name" : "accessor_normal_m1-PolyPaper11_-186534",
			"type" : "VEC3"
		},
		{
			"bufferView" : 1,
			"byteOffset" : 0,
			"componentType" : 5126,
			"count" : 9882,
			"max" : 
			[
				0.3677984,
				1.963193,
				-0.2424502
			],
			"min" : 
			[
				-0.353068,
				0.3000263,
				-0.8303913000000001
			],
			"name" : "accessor_position_m0-PolyPaper18_-185814",
			"type" : "VEC3"
		},
		{
			"bufferView" : 1,
			"byteOffset" : 237168,
			"componentType" : 5126,
			"count" : 5102,
			"max" : 
			[
				0.2814166,
				1.395956,
				-0.2210954
			],
			"min" : 
			[
				-0.2187781,
				0.3088378,
				-0.8439573
			],
			"name" : "accessor_position_m1-PolyPaper11_-186534",
			"type" : "VEC3"
		}
	],
	"asset" : 
	{
		"copyright" : "Unknown",
		"generator" : "glTF 1-to-2 Upgrader for Google Blocks",
		"version" : "2.0"
	},
	"bufferViews" : 
	[
		{
			"buffer" : 0,
			"byteLength" : 45696,
			"byteOffset" : 0,
			"name" : "ushortBufferView",
			"target" : 34963
		},
		{
			"buffer" : 0,
			"byteLength" : 359616,
			"byteOffset" : 45696,
			"byteStride" : 12,
			"name" : "vec3BufferView",
			"target" : 34962
		},
		{
			"buffer" : 0,
			"byteLength" : 239744,
			"byteOffset" : 405312,
			"byteStride" : 16,
			"name" : "vec4BufferView",
			"target" : 34962
		}
	],
	"buffers" : 
	[
		{
			"byteLength" : 645056,
			"name" : "model",
			"uri" : "model.bin"
		}
	],
	"materials" : 
	[
		{
			"alphaMode" : "OPAQUE",
			"doubleSided" : false,
			"name" : "BlocksPaper",
			"pbrMetallicRoughness" : 
			{
				"baseColorFactor" : 
				[
					1,
					1,
					1,
					1
				],
				"metallicFactor" : 0,
				"roughnessFactor" : 0.6
			}
		},
		{
			"alphaMode" : "BLEND",
			"doubleSided" : false,
			"name" : "BlocksGlass",
			"pbrMetallicRoughness" : 
			{
				"baseColorFactor" : 
				[
					0.2,
					0.2,
					1,
					0.3
				],
				"metallicFactor" : 1,
				"roughnessFactor" : 0.4
			}
		},
		{
			"alphaMode" : "OPAQUE",
			"doubleSided" : true,
			"name" : "BlocksGem",
			"pbrMetallicRoughness" : 
			{
				"baseColorFactor" : 
				[
					1,
					0.4,
					1,
					1
				],
				"metallicFactor" : 0,
				"roughnessFactor" : 0.1
			}
		}
	],
	"meshes" : 
	[
		{
			"name" : "mesh_m0-PolyPaper18_-185814",
			"primitives" : 
			[
				{
					"attributes" : 
					{
						"COLOR_0" : 0,
						"NORMAL" : 4,
						"POSITION" : 6
					},
					"indices" : 2,
					"material" : 0,
					"mode" : 4
				}
			]
		},
		{
			"name" : "mesh_m1-PolyPaper11_-186534",
			"primitives" : 
			[
				{
					"attributes" : 
					{
						"COLOR_0" : 1,
						"NORMAL" : 5,
						"POSITION" : 7
					},
					"indices" : 3,
					"material" : 0,
					"mode" : 4
				}
			]
		}
	],
	"nodes" : 
	[
		{
			"matrix" : 
			[
				1,
				0,
				0,
				0,
				0,
				1,
				0,
				0,
				0,
				0,
				1,
				0,
				0,
				0,
				0,
				1
			],
			"mesh" : 1,
			"name" : "node_MeshObject-611101056-PolyPaper11"
		},
		{
			"matrix" : 
			[
				1,
				0,
				0,
				0,
				0,
				1,
				0,
				0,
				0,
				0,
				1,
				0,
				0,
				0,
				0,
				1
			],
			"mesh" : 0,
			"name" : "node_MeshObject2127706048-PolyPaper18"
		}
	],
	"scene" : 0,
	"scenes" : 
	[
		{
			"extras" : {},
			"name" : "defaultScene",
			"nodes" : 
			[
				1,
				0
			]
		}
	]
}